<svg id="visual" viewBox="0 0 900 600" width="900" height="600" xmlns="http://www.w3.org/2000/svg" xmlns:xlink="http://www.w3.org/1999/xlink" version="1.1"><rect x="0" y="0" width="900" height="600" fill="#fa9c9c"></rect><path d="M0 282L21.5 295C43 308 86 334 128.8 341.7C171.7 349.3 214.3 338.7 257.2 319.5C300 300.3 343 272.7 385.8 271.5C428.7 270.3 471.3 295.7 514.2 316.7C557 337.7 600 354.3 642.8 345C685.7 335.7 728.3 300.3 771.2 294.3C814 288.3 857 311.7 878.5 323.3L900 335L900 601L878.5 601C857 601 814 601 771.2 601C728.3 601 685.7 601 642.8 601C600 601 557 601 514.2 601C471.3 601 428.7 601 385.8 601C343 601 300 601 257.2 601C214.3 601 171.7 601 128.8 601C86 601 43 601 21.5 601L0 601Z" fill="#ff6f6f"></path><path d="M0 345L21.5 348.5C43 352 86 359 128.8 363.8C171.7 368.7 214.3 371.3 257.2 373.2C300 375 343 376 385.8 366.7C428.7 357.3 471.3 337.7 514.2 324.8C557 312 600 306 642.8 311.3C685.7 316.7 728.3 333.3 771.2 337.8C814 342.3 857 334.7 878.5 330.8L900 327L900 601L878.5 601C857 601 814 601 771.2 601C728.3 601 685.7 601 642.8 601C600 601 557 601 514.2 601C471.3 601 428.7 601 385.8 601C343 601 300 601 257.2 601C214.3 601 171.7 601 128.8 601C86 601 43 601 21.5 601L0 601Z" fill="#e35e60"></path><path d="M0 383L21.5 382.3C43 381.7 86 380.3 128.8 374C171.7 367.7 214.3 356.3 257.2 358.3C300 360.3 343 375.7 385.8 372.8C428.7 370 471.3 349 514.2 338C557 327 600 326 642.8 330.8C685.7 335.7 728.3 346.3 771.2 350C814 353.7 857 350.3 878.5 348.7L900 347L900 601L878.5 601C857 601 814 601 771.2 601C728.3 601 685.7 601 642.8 601C600 601 557 601 514.2 601C471.3 601 428.7 601 385.8 601C343 601 300 601 257.2 601C214.3 601 171.7 601 128.8 601C86 601 43 601 21.5 601L0 601Z" fill="#c74e51"></path><path d="M0 407L21.5 413.2C43 419.3 86 431.7 128.8 433.5C171.7 435.3 214.3 426.7 257.2 425.5C300 424.3 343 430.7 385.8 423C428.7 415.3 471.3 393.7 514.2 389.7C557 385.7 600 399.3 642.8 411.2C685.7 423 728.3 433 771.2 439.3C814 445.7 857 448.3 878.5 449.7L900 451L900 601L878.5 601C857 601 814 601 771.2 601C728.3 601 685.7 601 642.8 601C600 601 557 601 514.2 601C471.3 601 428.7 601 385.8 601C343 601 300 601 257.2 601C214.3 601 171.7 601 128.8 601C86 601 43 601 21.5 601L0 601Z" fill="#ac3e42"></path><path d="M0 413L21.5 415.3C43 417.7 86 422.3 128.8 431.2C171.7 440 214.3 453 257.2 458.3C300 463.7 343 461.3 385.8 456.7C428.7 452 471.3 445 514.2 446.7C557 448.3 600 458.7 642.8 460C685.7 461.3 728.3 453.7 771.2 443.7C814 433.7 857 421.3 878.5 415.2L900 409L900 601L878.5 601C857 601 814 601 771.2 601C728.3 601 685.7 601 642.8 601C600 601 557 601 514.2 601C471.3 601 428.7 601 385.8 601C343 601 300 601 257.2 601C214.3 601 171.7 601 128.8 601C86 601 43 601 21.5 601L0 601Z" fill="#922e34"></path><path d="M0 494L21.5 491.3C43 488.7 86 483.3 128.8 480.7C171.7 478 214.3 478 257.2 476.3C300 474.7 343 471.3 385.8 468.2C428.7 465 471.3 462 514.2 467.3C557 472.7 600 486.3 642.8 491.2C685.7 496 728.3 492 771.2 487.8C814 483.7 857 479.3 878.5 477.2L900 475L900 601L878.5 601C857 601 814 601 771.2 601C728.3 601 685.7 601 642.8 601C600 601 557 601 514.2 601C471.3 601 428.7 601 385.8 601C343 601 300 601 257.2 601C214.3 601 171.7 601 128.8 601C86 601 43 601 21.5 601L0 601Z" fill="#781f26"></path><path d="M0 538L21.5 536.2C43 534.3 86 530.7 128.8 525.3C171.7 520 214.3 513 257.2 507.3C300 501.7 343 497.3 385.8 496C428.7 494.7 471.3 496.3 514.2 496.7C557 497 600 496 642.8 502C685.7 508 728.3 521 771.2 520.2C814 519.3 857 504.7 878.5 497.3L900 490L900 601L878.5 601C857 601 814 601 771.2 601C728.3 601 685.7 601 642.8 601C600 601 557 601 514.2 601C471.3 601 428.7 601 385.8 601C343 601 300 601 257.2 601C214.3 601 171.7 601 128.8 601C86 601 43 601 21.5 601L0 601Z" fill="#600f19"></path><path d="M0 570L21.5 563.5C43 557 86 544 128.8 541.2C171.7 538.3 214.3 545.7 257.2 552.5C300 559.3 343 565.7 385.8 563.5C428.7 561.3 471.3 550.7 514.2 547.7C557 544.7 600 549.3 642.8 555.2C685.7 561 728.3 568 771.2 564.2C814 560.3 857 545.7 878.5 538.3L900 531L900 601L878.5 601C857 601 814 601 771.2 601C728.3 601 685.7 601 642.8 601C600 601 557 601 514.2 601C471.3 601 428.7 601 385.8 601C343 601 300 601 257.2 601C214.3 601 171.7 601 128.8 601C86 601 43 601 21.5 601L0 601Z" fill="#48000a"></path></svg>