<svg id="visual" viewBox="0 0 900 600" width="900" height="600" xmlns="http://www.w3.org/2000/svg" xmlns:xlink="http://www.w3.org/1999/xlink" version="1.1"><rect x="0" y="0" width="900" height="600" fill="#fd7d8f"></rect><defs><linearGradient id="grad1_0" x1="33.3%" y1="100%" x2="100%" y2="0%"><stop offset="20%" stop-color="#49000a" stop-opacity="1"></stop><stop offset="80%" stop-color="#49000a" stop-opacity="1"></stop></linearGradient></defs><defs><linearGradient id="grad1_1" x1="33.3%" y1="100%" x2="100%" y2="0%"><stop offset="20%" stop-color="#49000a" stop-opacity="1"></stop><stop offset="80%" stop-color="#61121c" stop-opacity="1"></stop></linearGradient></defs><defs><linearGradient id="grad1_2" x1="33.3%" y1="100%" x2="100%" y2="0%"><stop offset="20%" stop-color="#79232d" stop-opacity="1"></stop><stop offset="80%" stop-color="#61121c" stop-opacity="1"></stop></linearGradient></defs><defs><linearGradient id="grad1_3" x1="33.3%" y1="100%" x2="100%" y2="0%"><stop offset="20%" stop-color="#79232d" stop-opacity="1"></stop><stop offset="80%" stop-color="#92353f" stop-opacity="1"></stop></linearGradient></defs><defs><linearGradient id="grad1_4" x1="33.3%" y1="100%" x2="100%" y2="0%"><stop offset="20%" stop-color="#ac4651" stop-opacity="1"></stop><stop offset="80%" stop-color="#92353f" stop-opacity="1"></stop></linearGradient></defs><defs><linearGradient id="grad1_5" x1="33.3%" y1="100%" x2="100%" y2="0%"><stop offset="20%" stop-color="#ac4651" stop-opacity="1"></stop><stop offset="80%" stop-color="#c75865" stop-opacity="1"></stop></linearGradient></defs><defs><linearGradient id="grad1_6" x1="33.3%" y1="100%" x2="100%" y2="0%"><stop offset="20%" stop-color="#e26a7a" stop-opacity="1"></stop><stop offset="80%" stop-color="#c75865" stop-opacity="1"></stop></linearGradient></defs><defs><linearGradient id="grad1_7" x1="33.3%" y1="100%" x2="100%" y2="0%"><stop offset="20%" stop-color="#e26a7a" stop-opacity="1"></stop><stop offset="80%" stop-color="#fd7d8f" stop-opacity="1"></stop></linearGradient></defs><defs><linearGradient id="grad2_0" x1="0%" y1="100%" x2="66.7%" y2="0%"><stop offset="20%" stop-color="#49000a" stop-opacity="1"></stop><stop offset="80%" stop-color="#49000a" stop-opacity="1"></stop></linearGradient></defs><defs><linearGradient id="grad2_1" x1="0%" y1="100%" x2="66.7%" y2="0%"><stop offset="20%" stop-color="#61121c" stop-opacity="1"></stop><stop offset="80%" stop-color="#49000a" stop-opacity="1"></stop></linearGradient></defs><defs><linearGradient id="grad2_2" x1="0%" y1="100%" x2="66.7%" y2="0%"><stop offset="20%" stop-color="#61121c" stop-opacity="1"></stop><stop offset="80%" stop-color="#79232d" stop-opacity="1"></stop></linearGradient></defs><defs><linearGradient id="grad2_3" x1="0%" y1="100%" x2="66.7%" y2="0%"><stop offset="20%" stop-color="#92353f" stop-opacity="1"></stop><stop offset="80%" stop-color="#79232d" stop-opacity="1"></stop></linearGradient></defs><defs><linearGradient id="grad2_4" x1="0%" y1="100%" x2="66.7%" y2="0%"><stop offset="20%" stop-color="#92353f" stop-opacity="1"></stop><stop offset="80%" stop-color="#ac4651" stop-opacity="1"></stop></linearGradient></defs><defs><linearGradient id="grad2_5" x1="0%" y1="100%" x2="66.7%" y2="0%"><stop offset="20%" stop-color="#c75865" stop-opacity="1"></stop><stop offset="80%" stop-color="#ac4651" stop-opacity="1"></stop></linearGradient></defs><defs><linearGradient id="grad2_6" x1="0%" y1="100%" x2="66.7%" y2="0%"><stop offset="20%" stop-color="#c75865" stop-opacity="1"></stop><stop offset="80%" stop-color="#e26a7a" stop-opacity="1"></stop></linearGradient></defs><defs><linearGradient id="grad2_7" x1="0%" y1="100%" x2="66.7%" y2="0%"><stop offset="20%" stop-color="#fd7d8f" stop-opacity="1"></stop><stop offset="80%" stop-color="#e26a7a" stop-opacity="1"></stop></linearGradient></defs><g transform="translate(900, 600)"><path d="M-540.8 0C-546.7 -64.4 -552.5 -128.8 -514.4 -167.1C-476.2 -205.5 -394.2 -217.8 -356.8 -259.2C-319.4 -300.6 -326.7 -371 -300.4 -413.4C-274 -455.9 -213.9 -470.4 -158.2 -486.9C-102.5 -503.5 -51.3 -522.2 0 -540.8L0 0Z" fill="#ef7484"></path><path d="M-473.2 0C-478.3 -56.3 -483.4 -112.7 -450.1 -146.2C-416.7 -179.8 -344.9 -190.6 -312.2 -226.8C-279.5 -263 -285.9 -324.6 -262.8 -361.7C-239.7 -398.9 -187.2 -411.6 -138.4 -426.1C-89.7 -440.6 -44.9 -456.9 0 -473.2L0 0Z" fill="#d4616f"></path><path d="M-405.6 0C-410 -48.3 -414.4 -96.6 -385.8 -125.3C-357.2 -154.1 -295.6 -163.4 -267.6 -194.4C-239.6 -225.4 -245.1 -278.2 -225.3 -310.1C-205.5 -341.9 -160.4 -352.8 -118.7 -365.2C-76.9 -377.6 -38.5 -391.6 0 -405.6L0 0Z" fill="#b94f5b"></path><path d="M-338 0C-341.7 -40.2 -345.3 -80.5 -321.5 -104.5C-297.6 -128.4 -246.3 -136.2 -223 -162C-199.6 -187.9 -204.2 -231.9 -187.7 -258.4C-171.2 -284.9 -133.7 -294 -98.9 -304.3C-64.1 -314.7 -32 -326.4 0 -338L0 0Z" fill="#9f3d48"></path><path d="M-270.4 0C-273.3 -32.2 -276.2 -64.4 -257.2 -83.6C-238.1 -102.7 -197.1 -108.9 -178.4 -129.6C-159.7 -150.3 -163.4 -185.5 -150.2 -206.7C-137 -227.9 -106.9 -235.2 -79.1 -243.5C-51.3 -251.8 -25.6 -261.1 0 -270.4L0 0Z" fill="#862c36"></path><path d="M-202.8 0C-205 -24.1 -207.2 -48.3 -192.9 -62.7C-178.6 -77.1 -147.8 -81.7 -133.8 -97.2C-119.8 -112.7 -122.5 -139.1 -112.6 -155C-102.7 -170.9 -80.2 -176.4 -59.3 -182.6C-38.5 -188.8 -19.2 -195.8 0 -202.8L0 0Z" fill="#6d1b24"></path><path d="M-135.2 0C-136.7 -16.1 -138.1 -32.2 -128.6 -41.8C-119.1 -51.4 -98.5 -54.5 -89.2 -64.8C-79.9 -75.1 -81.7 -92.7 -75.1 -103.4C-68.5 -114 -53.5 -117.6 -39.6 -121.7C-25.6 -125.9 -12.8 -130.5 0 -135.2L0 0Z" fill="#550814"></path><path d="M-67.6 0C-68.3 -8 -69.1 -16.1 -64.3 -20.9C-59.5 -25.7 -49.3 -27.2 -44.6 -32.4C-39.9 -37.6 -40.8 -46.4 -37.5 -51.7C-34.2 -57 -26.7 -58.8 -19.8 -60.9C-12.8 -62.9 -6.4 -65.3 0 -67.6L0 0Z" fill="#49000a"></path></g><g transform="translate(0, 0)"><path d="M540.8 0C544.5 63.1 548.2 126.1 514.4 167.1C480.6 208.1 409.3 227 373 271C336.6 314.9 335.2 383.9 302.1 415.8C269 447.8 204.3 442.8 148.6 457.5C93 472.1 46.5 506.5 0 540.8L0 0Z" fill="#ef7484"></path><path d="M473.2 0C476.4 55.2 479.6 110.4 450.1 146.2C420.5 182.1 358.1 198.7 326.3 237.1C294.5 275.5 293.3 335.9 264.4 363.9C235.4 391.8 178.7 387.4 130.1 400.3C81.4 413.1 40.7 443.2 0 473.2L0 0Z" fill="#d4616f"></path><path d="M405.6 0C408.4 47.3 411.1 94.6 385.8 125.3C360.4 156.1 307 170.3 279.7 203.2C252.5 236.2 251.4 287.9 226.6 311.9C201.8 335.9 153.2 332.1 111.5 343.1C69.8 354.1 34.9 379.9 0 405.6L0 0Z" fill="#b94f5b"></path><path d="M338 0C340.3 39.4 342.6 78.8 321.5 104.5C300.4 130.1 255.8 141.9 233.1 169.4C210.4 196.8 209.5 239.9 188.8 259.9C168.1 279.9 127.7 276.7 92.9 285.9C58.1 295.1 29.1 316.5 0 338L0 0Z" fill="#9f3d48"></path><path d="M270.4 0C272.2 31.5 274.1 63.1 257.2 83.6C240.3 104.1 204.6 113.5 186.5 135.5C168.3 157.5 167.6 191.9 151.1 207.9C134.5 223.9 102.1 221.4 74.3 228.7C46.5 236.1 23.3 253.2 0 270.4L0 0Z" fill="#862c36"></path><path d="M202.8 0C204.2 23.7 205.6 47.3 192.9 62.7C180.2 78 153.5 85.1 139.9 101.6C126.2 118.1 125.7 143.9 113.3 155.9C100.9 167.9 76.6 166 55.7 171.5C34.9 177 17.4 189.9 0 202.8L0 0Z" fill="#6d1b24"></path><path d="M135.2 0C136.1 15.8 137 31.5 128.6 41.8C120.1 52 102.3 56.8 93.2 67.7C84.2 78.7 83.8 96 75.5 104C67.3 112 51.1 110.7 37.2 114.4C23.3 118 11.6 126.6 0 135.2L0 0Z" fill="#550814"></path><path d="M67.6 0C68.1 7.9 68.5 15.8 64.3 20.9C60.1 26 51.2 28.4 46.6 33.9C42.1 39.4 41.9 48 37.8 52C33.6 56 25.5 55.3 18.6 57.2C11.6 59 5.8 63.3 0 67.6L0 0Z" fill="#49000a"></path></g></svg>